<?xml version="1.0" encoding="UTF-8" standalone="no"?>
<!DOCTYPE svg PUBLIC "-//W3C//DTD SVG 1.1//EN" "http://www.w3.org/Graphics/SVG/1.1/DTD/svg11.dtd">
<svg width="100%" height="100%" viewBox="0 0 600 600" version="1.1" xmlns="http://www.w3.org/2000/svg" xmlns:xlink="http://www.w3.org/1999/xlink" xml:space="preserve" xmlns:serif="http://www.serif.com/" style="fill-rule:evenodd;clip-rule:evenodd;stroke-linecap:round;stroke-linejoin:round;stroke-miterlimit:1.5;">
    <g transform="matrix(0.916967,0,0,0.778287,-137.447,-62.5161)">
        <path d="M184.72,88.951C184.72,118.639 182.203,144.589 182.203,173.706C182.203,180.83 183.205,203.24 186.399,206.434C190.819,210.854 185.405,222.068 188.077,227.413C191.173,233.604 191.221,289.097 188.077,295.385C182.503,306.534 192.44,363.189 184.72,370.909C182.343,373.287 186.259,381.958 183.881,384.336C180.567,387.65 182.203,399.719 182.203,405.315C182.203,420.434 178.846,438.387 178.846,453.147L178.846,481.678C178.846,485.099 179.685,498.108 179.685,492.587" style="fill:none;stroke:black;stroke-width:1px;"/>
    </g>
    <g transform="matrix(0.916967,0,0,0.778287,-137.447,-62.5161)">
        <path d="M158.706,243.357C164.664,243.357 174.199,245.229 178.846,247.552C186.591,251.425 199.653,245.369 207.378,249.231C218.464,254.774 237.024,254.078 250.175,258.462C263.107,262.772 283.995,262.072 292.972,271.049C296.928,275.004 321.092,280.707 329.056,288.671C334.695,294.311 340.293,299.398 344.161,307.133C345.284,309.379 345.249,313.256 346.678,314.685C351.846,319.852 359.089,365.388 354.231,375.105C350.186,383.195 348.676,390.411 345,397.762C339.44,408.882 322.276,409.578 313.951,417.902C312.832,419.021 309.196,417.622 308.077,418.741C303.271,423.547 273.929,425.196 270.315,428.811C264.106,435.02 246.67,431.658 237.587,434.685C231.121,436.841 209.92,438.856 207.378,441.399C205.564,443.213 182.817,440.252 178.846,442.238C170.386,446.468 153.735,448.112 143.601,448.112" style="fill:none;stroke:black;stroke-width:1px;"/>
    </g>
</svg>
