<?xml version="1.0" encoding="UTF-8" standalone="no"?>
<!-- Created with Inkscape (http://www.inkscape.org/) -->

<svg
   version="1.1"
   id="svg59"
   width="800"
   height="800"
   viewBox="0 0 800 800"
   sodipodi:docname="imgbox.png"
   inkscape:export-filename="ibx.svg"
   inkscape:export-xdpi="96"
   inkscape:export-ydpi="96"
   xmlns:inkscape="http://www.inkscape.org/namespaces/inkscape"
   xmlns:sodipodi="http://sodipodi.sourceforge.net/DTD/sodipodi-0.dtd"
   xmlns="http://www.w3.org/2000/svg"
   xmlns:svg="http://www.w3.org/2000/svg">
  <defs
     id="defs63" />
  <sodipodi:namedview
     id="namedview61"
     pagecolor="#ffffff"
     bordercolor="#000000"
     borderopacity="0.25"
     inkscape:showpageshadow="2"
     inkscape:pageopacity="0.0"
     inkscape:pagecheckerboard="0"
     inkscape:deskcolor="#d1d1d1"
     showgrid="false" />
  <g
     inkscape:groupmode="layer"
     inkscape:label="Image"
     id="g65">
    <path
       style="fill:#000000;stroke-width:1.33333"
       d="m 385.56468,673.919 -278.2681,-10.1671 -1.19895,-1.33333 -1.19894,-1.33333 -1.54056,-272.54795 c -0.8473,-149.90139 -1.3602,-272.72831 -1.13978,-272.94874 0.29117,-0.29117 593.08806,8.45238 595.2811,8.78019 0.18334,0.0274 0.33334,126.04983 0.33334,280.04983 v 280 l -17,-0.16624 c -9.35,-0.0915 -142.22064,-4.74143 -295.26811,-10.33333 z M 695.83663,127.3113 c -0.82472,-0.82472 -590.18455,-9.82314 -590.98446,-9.02323 -0.47228,0.47228 2.35404,542.46579 2.8313,542.94805 0.0821,0.083 132.44932,4.885 294.14932,10.67114 l 294,10.52026 0.33648,-277.22355 c 0.18506,-152.47295 0.0353,-277.52465 -0.33264,-277.89267 z m -289.65862,481.16646 -210.9881,-6.25762 -0.82072,-0.82073 -0.82072,-0.82072 -6.13195,-210.02817 -6.13195,-210.02818 0.75704,-0.75704 0.75706,-0.75705 229.18372,1.58012 c 126.05105,0.86907 229.47768,1.83033 229.83694,2.13616 0.52816,0.44957 16.97392,406.92707 17.26371,426.69404 l 0.0831,5.66667 -21,-0.17494 c -11.55,-0.0963 -115.94465,-2.99086 -231.98811,-6.43254 z M 656.0974,595.41857 c -0.44703,-9.35 -4.22345,-105.5 -8.39205,-213.66667 -4.16859,-108.16666 -7.64526,-196.73942 -7.72591,-196.82837 -0.37808,-0.41687 -455.68875,-3.38848 -455.96817,-2.97589 -0.58212,0.85956 11.92014,417.0162 12.54325,417.52062 0.81501,0.65979 407.47597,12.53894 437.15029,12.76979 l 23.20536,0.18052 z"
       id="path198" />
  </g>
</svg>
