<?xml version="1.0" encoding="UTF-8" standalone="no"?>
<!-- Created with Inkscape (http://www.inkscape.org/) -->

<svg
   width="600"
   height="600"
   viewBox="0 0 158.75 158.75"
   version="1.1"
   id="svg5"
   inkscape:export-filename="mrT_text.svg"
   inkscape:export-xdpi="96"
   inkscape:export-ydpi="96"
   xmlns:inkscape="http://www.inkscape.org/namespaces/inkscape"
   xmlns:sodipodi="http://sodipodi.sourceforge.net/DTD/sodipodi-0.dtd"
   xmlns="http://www.w3.org/2000/svg"
   xmlns:svg="http://www.w3.org/2000/svg">
  <sodipodi:namedview
     id="namedview7"
     pagecolor="#ffffff"
     bordercolor="#000000"
     borderopacity="0.25"
     inkscape:showpageshadow="2"
     inkscape:pageopacity="0.0"
     inkscape:pagecheckerboard="0"
     inkscape:deskcolor="#d1d1d1"
     inkscape:document-units="mm"
     showgrid="false" />
  <defs
     id="defs2" />
  <g
     inkscape:label="Layer 1"
     inkscape:groupmode="layer"
     id="layer1">
    <path
       style="fill:none;stroke:#000000;stroke-width:0.161131"
       d="m 17.414893,15.221907 c 0.128999,0.171999 0.338653,0.306504 0.386998,0.515997 0.08702,0.377087 0,0.773995 0,1.160992 0,2.807692 -0.429428,5.285549 -0.902995,8.126951 -0.142055,0.852331 -0.644996,2.297594 -0.644996,3.22498 0,0.086 0,-0.172 0,-0.257998 0,-0.300998 0,-0.601996 0,-0.902996"
       id="path122" />
    <path
       style="fill:none;stroke:#000000;stroke-width:0.161131"
       d="m 15.737904,20.897872 c 0.300998,0.128999 0.579141,0.33842 0.902994,0.386998 0.552812,0.08292 1.117993,0 1.67699,0 1.117993,0 2.235986,0 3.353979,0 2.015184,0 2.810367,0.400805 4.643971,-0.515997"
       id="path124" />
    <path
       style="fill:none;stroke:#000000;stroke-width:0.161131"
       d="m 23.090858,17.543892 c 0.171999,0.429998 0.43731,0.833605 0.515997,1.289992 0.426459,2.473463 0.03988,5.115671 0.128999,7.610954 0.01716,0.480445 -0.08194,1.079049 0.257999,1.418991 0.177058,0.177059 0.128999,-0.227645 0.128999,-0.257998"
       id="path126" />
    <path
       style="fill:none;stroke:#000000;stroke-width:0.161131"
       d="m 28.665097,22.474478 c 2.0497,1.591566 4.727372,0.873659 5.003695,-1.060609 0.06684,-0.467885 -0.106346,-1.569261 -0.644996,-1.67699 -0.252986,-0.0506 -0.515995,0 -0.773993,0 -0.616405,0 -0.982017,-0.08159 -1.547993,0.257998 -0.469302,0.281582 -0.773993,0.773996 -1.160991,1.160993 -0.468937,0.468937 -1.115738,0.979969 -1.289992,1.67699 -0.09386,0.375443 0,0.773995 0,1.160993 0,1.491395 0.03204,1.718062 0.773996,3.09598 0.424439,0.788249 0.937527,1.180068 1.934988,0.902996 0.969042,-0.269179 2.610215,-1.80599 3.353977,-1.80599"
       id="path128"
       sodipodi:nodetypes="csssssssssc" />
    <path
       style="fill:none;stroke:#000000;stroke-width:0.161131"
       d="m 39.344758,15.479905 c 0.383114,2.107124 0.347607,1.652324 0.515999,4.514972 0.111215,1.890674 0.185208,3.783423 0.257997,5.675966 0.01654,0.429679 0,0.859994 0,1.289992 0,0.135977 -0.06819,-0.265377 -0.129,-0.386998"
       id="path130" />
    <path
       style="fill:none;stroke:#000000;stroke-width:0.161131"
       d="m 42.956736,15.092907 c 1.064509,1.774183 0.854406,1.249716 1.160994,5.03097 0.260652,3.214717 -0.02715,2.536876 0.220214,5.752643"
       id="path132"
       sodipodi:nodetypes="csc" />
    <path
       style="fill:none;stroke:#000000;stroke-width:0.161131"
       d="m 50.416559,24.500682 c -1.416359,0.408895 -2.627134,-0.21164 -3.202849,-1.280824 -0.394772,-0.733151 -0.763778,-2.012047 -0.515996,-2.837983 0.275495,-0.918316 2.543175,-1.156349 3.22498,-0.644996 0.689036,0.516778 0.340651,0.382983 0.773996,0.902994 0.558514,0.670218 0.233207,0.08768 0.644996,0.773996 0.601491,1.002486 0.297095,2.566951 -0.902996,2.966981 -0.608529,0.202843 -1.047557,-0.128999 -1.67699,-0.128999"
       id="path134"
       sodipodi:nodetypes="cssssssc" />
    <path
       style="fill:none;stroke:#000000;stroke-width:0.161131"
       d="m 78.818517,12.899921 c 1.523529,3.182739 0.972381,6.790952 0.902994,10.190937 -0.01315,0.644862 0,1.289992 0,1.934989 0,0.0725 0.05717,0.974826 -0.128998,1.160992 -0.125365,0.125365 -0.347803,-0.07293 -0.515998,-0.128999"
       id="path136" />
    <path
       style="fill:none;stroke:#000000;stroke-width:0.161131"
       d="m 75.980535,20.897872 c 3.750276,0.592627 8.271584,1.193568 11.609927,-1.031994"
       id="path138" />
    <path
       style="fill:none;stroke:#000000;stroke-width:0.161131"
       d="m 83.720487,12.899921 c 0.500184,4.251573 0.274952,1.962618 0.644995,8.900945 0.05272,0.988524 0.07557,1.978497 0.129001,2.966982 0.03257,0.60265 0.05414,1.20712 0.128997,1.805989 0.01193,0.09541 0.129001,0.161848 0.129001,0.257998 0,0.06081 -0.09527,-0.0784 -0.129001,-0.128998 -0.136456,-0.204684 -0.238127,-0.555424 -0.257998,-0.773996 -0.09086,-0.999427 0.294257,-2.137435 1.289992,-2.579984 0.368393,-0.16373 2.563249,-0.661731 2.966982,-0.257999 0.03041,0.03041 -0.03041,0.09859 0,0.129 0.06799,0.06799 0.208529,0.04655 0.257998,0.128999 0.07427,0.123778 0.236651,0.881645 0.386998,1.031993 0.05164,0.05164 0.163931,0.06986 0.257998,0.257999 0.0516,0.103199 -0.0516,0.283798 0,0.386998 0.01923,0.03846 0.09859,-0.03041 0.129,0 0.06799,0.06799 0.086,0.171998 0.128998,0.257998 0.09799,0.195987 -0.05392,0.558298 0,0.773995 0.115123,0.460485 0.386998,0.436939 0.386998,1.160993"
       id="path140" />
    <path
       style="fill:none;stroke:#000000;stroke-width:0.161131"
       d="m 93.137428,25.025847 c 1.194908,0.259339 2.705843,0.03657 3.48298,-1.031994 0.456555,-0.627763 0.218104,-1.022679 0,-1.67699 -0.04504,-0.135118 -0.232759,-0.789699 -0.515998,-0.902994 -0.415885,-0.166354 -1.227902,-0.297784 -1.54799,0.128999 -0.173072,0.23076 -0.257998,0.515997 -0.386998,0.773995 -0.91558,1.831161 -1.160992,3.15025 -1.160992,5.159968 0,0.215 -0.05907,0.438271 0,0.644996 0.03645,0.127582 0.512419,0.471805 0.644996,0.515998 0.170836,0.05695 0.529222,-0.06284 0.644996,-0.129 0.186672,-0.10667 0.323697,-0.290846 0.515996,-0.386998 0.158575,-0.07929 0.357423,-0.04971 0.515998,-0.128998 0.108781,-0.05439 0.156803,-0.190534 0.257998,-0.257998 0.07156,-0.0477 0.197186,0.06081 0.257998,0 0.03041,-0.03041 -0.03578,-0.105148 0,-0.129 0.423786,-0.282525 1.072171,-0.357391 1.54799,-0.515998"
       id="path142" />
    <path
       style="fill:none;stroke:#000000;stroke-width:0.161131"
       d="m 100.36138,21.800866 c 0.301,0.558997 0.74489,1.06211 0.903,1.67699 0.50195,1.952024 0.15455,4.543863 0,6.449961 -0.0315,0.388104 0.0451,0.81272 -0.129,1.160992 -0.13461,0.269221 0.015,-0.602372 0,-0.902994 -0.0175,-1.037148 -0.20357,-2.061843 -0.258,-3.095982 -0.0756,-1.436767 0.0335,-0.6321 0.129,-2.063986 0.02,-0.300332 -0.0495,-0.606092 0,-0.902995 0.0381,-0.22841 0.21259,-0.417932 0.258,-0.644996 0.0924,-0.461872 0,-1.065242 0,-1.547991 0,-0.278784 0.33222,-0.07876 0.516,0 0.85489,0.366382 2.14427,1.011922 3.09598,0.773996 1.45638,-0.364097 3.56967,-4.064519 4.38597,-5.288968"
       id="path144" />
    <path
       style="fill:none;stroke:#000000;stroke-width:0.161131"
       d="m 108.11162,24.752198 c 1.31804,-0.446049 4.22671,-1.007235 3.98869,-2.435335 -0.0353,-0.212073 -0.258,-0.343998 -0.38699,-0.515997 -0.129,-0.171999 -0.24936,-0.35083 -0.387,-0.515996 -0.046,-0.05518 -0.22209,-0.340455 -0.387,-0.257999 -1.52614,0.763072 -2.35023,2.390675 -2.57998,3.998976 -0.0464,0.324638 -0.23007,1.30641 -0.129,1.67699 0.066,0.241893 0.29056,0.413552 0.38699,0.644996 0.1204,0.288962 0.118,0.622999 0.258,0.902994 0.11289,0.225771 1.00337,0.917305 1.28999,0.773996 0.15634,-0.07817 2.81389,-2.321986 2.19299,-2.321986"
       id="path146"
       sodipodi:nodetypes="ccsssccsssc" />
    <path
       style="fill:none;stroke:#000000;stroke-width:0.161131"
       d="m 11.609929,47.987706 c 3.474137,-0.315195 6.96272,-0.386998 10.448936,-0.386998 0.705957,0 2.195369,-0.160652 2.837982,0 0.664248,0.166063 -0.235742,0.132178 0.644996,0.257998 0.740925,0.105846 1.566635,0 2.321986,0"
       id="path148" />
    <path
       style="fill:none;stroke:#000000;stroke-width:0.161131"
       d="m 16.898896,39.989754 c 1.452453,3.437684 0.760535,6.99624 0.644996,10.577936 -0.01386,0.429773 0,0.859994 0,1.289992 0,0.086 0,-0.171998 0,-0.257998"
       id="path150" />
    <path
       style="fill:none;stroke:#000000;stroke-width:0.161131"
       d="m 20.768873,42.44074 c 0.802388,1.337313 0.758897,1.108591 1.031993,3.611978 0.149296,1.368544 0.104851,2.751521 0.128999,4.127974 0.01886,1.074827 0,2.149988 0,3.22498 0,0.730996 0,1.461992 0,2.192988 0,0.01754 0,0.662535 0,0.644996 0,-0.604925 -0.222663,-1.197171 -0.128999,-1.80599 0.18896,-1.228236 0.187448,-0.828408 0.773995,-1.805988 0.350694,-0.584488 0.739438,-1.172514 1.547991,-0.902996 1.173803,0.391268 1.529216,2.319565 1.67699,3.35398 0.02207,0.154487 0.225583,1.209286 0.386997,1.289991 0.05439,0.0272 0.086,-0.086 0.128999,-0.128997"
       id="path152" />
    <path
       style="fill:none;stroke:#000000;stroke-width:0.161131"
       d="m 29.282821,51.599684 c 1.021588,2.043179 0.386998,0.485545 0.386998,5.030967 0,0.343998 0,0.687996 0,1.031994 0,0.086 0.03387,0.337045 0,0.258001 -1.252209,-2.921823 -0.0078,-0.402598 -0.515998,-1.418992"
       id="path154" />
    <path
       style="fill:none;stroke:#000000;stroke-width:0.161131"
       d="m 30.314815,47.858706 c 0.675889,-0.438907 0.131125,-1.040495 0.257998,-1.54799 0.12615,-0.5046 0.644996,-1.046692 0.644996,-1.54799"
       id="path156" />
    <path
       style="fill:none;stroke:#000000;stroke-width:0.161131"
       d="m 36.506777,50.69669 c -0.343998,-0.215 -0.663673,-0.475004 -1.031994,-0.644996 -1.365885,-0.630409 -2.450987,1.61739 -2.450987,2.708982 0,0.343998 0.690102,0.03799 1.031994,0 0.584669,-0.06496 1.484625,-0.09656 2.063989,0 0.179951,0.02999 0.241051,0.27754 0.386998,0.386998 0.07692,0.05769 0.214997,0.043 0.257997,0.129 0.05769,0.115379 -0.02122,0.259752 0,0.386998 0.06961,0.417692 0.243158,0.626732 0,1.031991 -0.613984,1.023306 -2.078217,1.652464 -3.224979,1.160995 -0.362863,-0.155514 -0.743466,-0.325935 -0.902994,-0.644996 -0.126635,-0.25327 -0.480102,-0.129 -0.258001,-0.129 0.215001,0 0.429999,0 0.644996,0"
       id="path158" />
    <path
       style="fill:none;stroke:#000000;stroke-width:0.161131"
       d="m 49.0197,49.922694 c 0.736603,1.836142 0.364831,3.789309 0.128998,5.675966 -0.01601,0.128003 0.04079,0.264618 0,0.386995 -0.08591,0.257736 -0.424858,-0.278095 -0.644996,-0.644996"
       id="path160" />
    <path
       style="fill:none;stroke:#000000;stroke-width:0.161131"
       d="m 49.148698,46.697714 c 0.0976,-0.453718 -0.219321,-1.199671 0.129,-1.547992"
       id="path162" />
    <path
       style="fill:none;stroke:#000000;stroke-width:0.161131"
       d="m 57.14665,50.309692 c -0.870898,-1.451496 -0.477901,-1.104717 -1.67699,-2.063988 -1.66514,-1.332111 -3.097305,1.610503 -2.192986,2.966982 0.0163,0.02442 0.528354,0 0.644996,0 0.749459,0 2.182241,-0.01344 2.708981,0.644996 0.107448,0.134308 -0.03373,0.347337 0,0.515996 0.05794,0.289687 0.147931,0.736134 0,1.031994 -0.275791,0.551584 -1.423664,0.918366 -1.934988,1.031994 -0.304866,0.06775 -2.225206,0.09678 -2.450983,-0.128998"
       id="path164" />
    <path
       style="fill:none;stroke:#000000;stroke-width:0.161131"
       d="m 70.433567,46.955712 c 0.595662,1.976533 -0.04618,3.946305 -0.128998,5.933964 -0.02487,0.596855 0.103534,1.753383 -0.129,2.450983 -0.03041,0.09122 -0.234678,-0.03572 -0.257998,-0.128997 -0.12391,-0.495639 0,-1.171149 0,-1.67699"
       id="path166" />
    <path
       style="fill:none;stroke:#000000;stroke-width:0.161131"
       d="m 69.659573,47.987706 c 0.758677,0.303469 0.904724,0.281517 1.54799,1.031994 0.263999,0.307999 0.428376,0.689012 0.644996,1.031994 0.757703,1.199695 1.074597,1.8336 1.54799,3.09598 0.04461,0.118954 0.763783,0.902994 0.644996,0.902994 -0.183388,0 -0.421982,-0.292982 -0.515996,-0.386996"
       id="path168" />
    <path
       style="fill:none;stroke:#000000;stroke-width:0.161131"
       d="m 74.432543,47.600708 c 0.086,0.257998 0.257998,0.502042 0.257998,0.773996 0,0.764757 -0.800534,3.369562 -0.902994,3.740976 -0.130376,0.47262 -0.223825,0.956669 -0.386998,1.418992 -0.178912,0.50692 -0.515996,0.776809 -0.515996,1.289992"
       id="path170" />
    <path
       style="fill:none;stroke:#000000;stroke-width:0.161131"
       d="m 73.787547,48.245704 c 0.666252,-0.0056 0.838396,-0.129143 1.289992,0.515996 0.737216,1.053166 1.078145,2.308362 1.547992,3.48298 0.449543,1.123863 0.08063,-0.145119 0.515996,1.160992 0.304638,0.913915 -0.0329,0.192209 0.257998,0.773996 0.172773,0.345546 0.227269,0.743267 0.515998,1.031994 0.07709,0.07709 0.257998,-0.139433 0.257998,0.128997 0,0.0301 -0.2021,-0.128997 -0.257998,-0.128997"
       id="path172" />
    <path
       style="fill:none;stroke:#000000;stroke-width:0.161131"
       d="m 79.334512,50.43869 c 0.821341,0.98757 0.515999,2.734281 0.515999,3.998976 0,0.043 0.01924,-0.09054 0,-0.128998 -0.417751,-0.835499 -0.17367,0.141306 -0.386998,-1.031994 -0.112652,-0.619585 -0.315802,-1.299165 -0.257998,-1.934988 0.02753,-0.302808 0.152318,-0.599837 0.128997,-0.902996 -0.02085,-0.271153 -0.199003,-0.508516 -0.257997,-0.773994 -0.02798,-0.125928 0,-0.258 0,-0.386998 0,-0.043 -0.03846,-0.10977 0,-0.129 0.304815,-0.152408 0.549253,0.183086 0.773996,0.257998 0.122378,0.04079 0.259752,-0.02122 0.386998,0 0.262467,-0.0448 0.41793,0.212587 0.644996,0.258 0.508103,0.101621 0.631182,-0.258 1.160992,-0.258"
       id="path174" />
    <path
       style="fill:none;stroke:#000000;stroke-width:0.161131"
       d="m 85.655474,52.631678 c 1.359467,2.959654 -3.127119,1.118923 0,0 z"
       id="path176"
       sodipodi:nodetypes="cc" />
    <path
       style="fill:none;stroke:#000000;stroke-width:0.161131"
       d="m 89.880198,42.150492 c 1.139997,5.323782 -3.028282,23.810354 3.087763,13.254334"
       id="path178"
       sodipodi:nodetypes="cc" />
    <path
       style="fill:none;stroke:#000000;stroke-width:0.161131"
       d="m 86.825184,50.537733 c -0.703554,1.112387 0.02297,2.324614 1.50159,1.152105 2.588283,-2.052449 3.882615,-3.714462 5.712793,-4.507361 1.368301,-0.592797 1.405152,0.222597 0.483208,0.796844"
       id="path180"
       sodipodi:nodetypes="cssc" />
    <path
       style="fill:none;stroke:#000000;stroke-width:0.161131"
       d="m 15.866903,66.692591 c 0.214998,0.386998 0.545448,0.729621 0.644996,1.160992 0.164655,0.713507 0.0627,1.463736 0.128999,2.192988 0.06277,0.690502 0.204821,1.37268 0.257998,2.063986 0.04947,0.643096 -0.09122,1.296474 0,1.934988 0.0469,0.328289 0.257999,0.694904 0.257999,1.031994 0,0.831082 0.128999,1.618064 0.128999,2.450986 0,0.22987 0.136014,0.515996 0.128999,0.515996 -0.2793,0 -0.128999,-0.858441 -0.128999,-1.031994"
       id="path182" />
    <path
       style="fill:none;stroke:#000000;stroke-width:0.161131"
       d="m 18.962884,66.692591 c 0.086,0.945994 0.281738,1.888384 0.257998,2.837982 -0.03702,1.480881 -0.883405,5.319186 -1.67699,6.70796 -0.06034,0.105595 -0.190534,0.156803 -0.257998,0.257998 -0.01769,0.02653 0.128999,0.98121 0.128999,1.160991"
       id="path184" />
    <path
       style="fill:none;stroke:#000000;stroke-width:0.161131"
       d="m 18.575886,67.982583 c 0.644996,0.730996 1.42032,1.365041 1.934988,2.192986 0.488995,0.786646 0.67025,1.727303 1.031994,2.579984 1.058035,2.493941 0.365152,0.866587 1.54799,2.837984 0.247345,0.412239 0.356545,0.905391 0.644996,1.289992 0.0258,0.0344 0.109769,-0.03846 0.129,0 0.03846,0.07692 -0.03846,0.181078 0,0.257998 0.07929,0.158575 0.128999,-0.338704 0.128999,-0.515996"
       id="path186" />
    <path
       style="fill:none;stroke:#000000;stroke-width:0.161131"
       d="m 24.50985,66.692591 c 0.739646,3.163906 0.117417,6.246675 0,9.416942 -0.01077,0.290687 -0.123668,0.908325 0.128999,1.160994"
       id="path188" />
    <path
       style="fill:none;stroke:#000000;stroke-width:0.161131"
       d="m 27.734831,74.303545 c 1.229588,0.673243 2.589064,1.047827 3.998973,0.644996 0.721739,-0.206211 1.518322,-1.156867 1.031995,-1.934988 -0.113949,-0.182319 -0.352759,-0.247078 -0.515996,-0.386998 -0.699008,-0.599149 -1.268037,-0.876234 -2.192989,-0.644996 -0.695473,0.173868 -0.859287,0.109056 -1.289991,1.031994 -0.146603,0.314151 -0.06511,0.691256 -0.128998,1.031992 -0.06535,0.348511 -0.214019,0.680148 -0.257998,1.031994 -0.09067,0.725352 -0.08541,1.466998 0,2.192988 0.02957,0.251312 0.40095,1.629931 0.644996,1.934988 0.851038,1.063797 3.495559,0.116417 4.256974,-0.644996"
       id="path190" />
    <path
       style="fill:none;stroke:#000000;stroke-width:0.161131"
       d="m 35.087784,66.047595 c 0.429999,1.289992 1.063104,2.529269 1.289992,3.869976 0.251222,1.484498 0.08123,3.010125 0.129001,4.514972 0.03823,1.204153 0.0673,2.408798 0.128997,3.611978 0.02432,0.474323 0.05678,0.949568 0.129,1.418992 0.05126,0.333216 0.245872,0.374872 -0.129,0"
       id="path192" />
    <path
       style="fill:none;stroke:#000000;stroke-width:0.161131"
       d="m 45.794718,71.336563 c -0.872935,-0.08729 -2.586599,-0.552127 -3.611978,0 -0.267711,0.14415 -0.437534,0.422714 -0.644996,0.644996 -0.394721,0.422915 -0.852075,0.800875 -1.160992,1.289992 -0.982003,1.554837 -0.340513,3.273552 0.515996,4.643972 0.05096,0.08153 0.06101,0.190008 0.129,0.257998 0.523153,0.523152 1.523847,0.386998 2.192986,0.386998"
       id="path194" />
    <path
       style="fill:none;stroke:#000000;stroke-width:0.161131"
       d="m 51.857682,76.883529 c -1.411857,0.344141 -2.914142,-0.44078 -3.482978,-1.80599 -0.803994,-1.929583 1.038021,-3.925221 2.708982,-4.514972 0.0894,-0.03155 1.634783,-0.659066 2.063988,-0.515996 0.147082,0.04903 0.255526,0.175827 0.386998,0.257998 0.212619,0.132887 0.467704,0.209704 0.644996,0.386998 0.177292,0.177292 0.257998,0.429996 0.386998,0.644996 1.297233,2.162056 0.837237,6.191962 -2.321986,6.191962 -0.166288,0 -1.039442,0.121552 -1.160994,0 -0.0304,-0.03041 0,-0.086 0,-0.129 -0.043,-0.043 -0.086,-0.086 -0.128998,-0.128998"
       id="path196" />
    <path
       style="fill:none;stroke:#000000;stroke-width:0.161131"
       d="m 58.952637,70.691567 c 0.472999,1.37599 1.106366,2.706939 1.418992,4.127974 0.166302,0.755917 0.03093,1.548609 0,2.321986 -0.01251,0.312793 -0.06244,1.147439 -0.257997,0.902994 -0.894131,-1.117661 -1.117788,-3.96503 -0.515999,-5.288968 0.07337,-0.161412 0.789832,-0.722556 0.902997,-0.773994 2.593567,-1.178896 2.969146,1.950143 3.224979,3.740976 0.0113,0.07908 0.259922,0.643075 0.128998,0.773996 -0.07438,0.07438 -0.3937,-0.211931 -0.644996,-0.902994 -0.242885,-0.667941 -0.43697,-2.509086 -0.257998,-3.22498 0.18016,-0.720637 1.012354,-0.640088 1.54799,-0.773996 0.235217,-0.0588 0.398616,-0.190595 0.644999,-0.129 0.828177,0.207044 1.340961,1.133933 1.676987,1.80599 0.06934,0.138668 0.208973,0.239916 0.258,0.386998 0.04079,0.122378 -0.02122,0.259752 0,0.386996 0.04471,0.268255 0.213289,0.505743 0.257998,0.773996 0.06104,0.366228 0,0.784952 0,1.160994"
       id="path198" />
    <path
       style="fill:none;stroke:#000000;stroke-width:0.161131"
       d="m 75.206539,65.531597 c 0.644996,1.117994 1.507651,2.136069 1.934988,3.35398 0.776226,2.212245 0.533095,3.71716 0.773996,5.804964 0.05996,0.519668 0.205946,1.027472 0.257998,1.547992 0.168635,1.686356 -0.184775,0.394007 0.128997,1.805988 0.03846,0.173071 0.297196,0.572063 0.129001,0.515998 -0.3736,-0.124534 -0.375587,-0.235178 -0.515996,-0.515998"
       id="path200" />
    <path
       style="fill:none;stroke:#000000;stroke-width:0.161131"
       d="m 75.593537,72.368557 c 1.368991,0.657786 2.737115,-0.258 4.127974,-0.258"
       id="path202" />
    <path
       style="fill:none;stroke:#000000;stroke-width:0.161131"
       d="m 84.365482,76.754529 c -1.658183,-0.736971 -1.371155,-0.332571 -2.321985,-2.579984 -0.397526,-0.939607 -0.349952,-1.972035 0.386998,-2.708984 0.358026,-0.358026 1.330692,-1.160992 1.934987,-1.160992 0.155038,0 0.255527,0.175829 0.386999,0.257998 0.212616,0.132887 0.444412,0.236561 0.644996,0.386998 2.074587,1.555941 1.679471,5.288968 -1.289992,5.288968"
       id="path204" />
    <path
       style="fill:none;stroke:#000000;stroke-width:0.161131"
       d="m 93.395426,71.078563 c 1.533223,2.7598 1.282716,1.531445 1.418992,4.256974 0.01074,0.21473 0.04216,0.434173 0,0.644998 -0.0084,0.04216 -0.08728,0.01042 -0.128998,0 -0.648808,-0.162203 -0.617669,-0.257466 -0.902996,-1.160994 -0.120132,-0.380415 -0.62725,-3.380597 -0.386998,-3.740978 0.203792,-0.305687 0.709464,-0.211072 1.031994,-0.386996 0.291986,-0.159266 0.721757,-0.754806 1.160994,-0.644996 1.051124,0.262779 2.650374,3.729194 2.192986,4.64397 -0.06933,0.13867 -0.287745,-0.138893 -0.386998,-0.257998 -0.356582,-0.4279 -0.647909,-0.851604 -0.773994,-1.41899 -0.294084,-1.323374 -0.452202,-3.151066 1.160992,-3.611978 0.124036,-0.03544 0.262961,0.03544 0.386998,0 0.184901,-0.05283 0.328276,-0.216283 0.515996,-0.258 0.500583,-0.111239 1.243605,0.04131 1.676986,0.258 0.173,0.08649 0.8457,0.769303 0.903,0.902994 0.0678,0.158091 -0.0337,0.347337 0,0.515996 0.19893,0.994669 0.22114,0.503711 0.516,1.289992 0.1245,0.33201 0.1997,0.682233 0.25799,1.031994 0.0152,0.09136 -0.0505,0.415062 0,0.515998 0.10147,0.202922 0.129,0.146254 0.129,0.386996"
       id="path206" />
    <path
       style="fill:none;stroke:#000000;stroke-width:0.161131"
       d="m 104.10236,69.530573 c 0.215,0.257998 0.5086,0.467103 0.645,0.773996 0.21601,0.486034 0.25409,1.032986 0.387,1.54799 0.21109,0.818012 0.38751,1.646367 0.64499,2.450986 0.0879,0.274728 0.258,0.515996 0.387,0.773994 0.043,0.086 0.0329,0.257998 0.129,0.257998 0.0731,0 2.17148,-3.396973 2.32198,-3.998974 0.14749,-0.589952 0.18258,-1.202579 0.258,-1.80599 0.0414,-0.331602 -0.0624,-0.734499 0,-0.515996 0.42495,1.487318 0.3624,3.007765 0.645,4.514972 0.0577,0.307681 0.2104,0.593593 0.258,0.902994 0.0392,0.255 -0.0506,0.521007 0,0.773996 0.10988,0.549399 0.55062,1.110739 0.64499,1.67699 0.16074,0.964422 0,2.462387 0,3.482978 0,0.257997 0.0461,0.520157 0,0.773996 -0.0458,0.251904 -0.40325,1.237681 -0.64499,1.418989 -0.10879,0.08159 -0.26894,0.06154 -0.387,0.129 -0.64813,0.370362 -1.22135,0.96927 -1.80599,1.418993 -1.0626,0.81738 -2.35446,1.547989 -3.74098,1.547989"
       id="path208" />
    <path
       style="fill:none;stroke:#000000;stroke-width:0.161131"
       d="m 27.863829,95.459414 c -0.343998,-0.472996 -0.542108,-1.0995 -1.031994,-1.41899 -0.559134,-0.364654 -1.26791,-0.491291 -1.934988,-0.515998 -1.437475,-0.05324 -1.747105,0.333277 -2.063987,1.54799 -0.1535,0.588417 -0.318507,1.200899 -0.257999,1.80599 0.06532,0.653166 0.81635,1.096701 1.418992,0.902994 0.95217,-0.306054 1.851363,-0.77542 2.708984,-1.289992 0.443997,-0.266398 0.841878,-0.624234 1.160992,-1.031994 0.463579,-0.592352 0.890974,-1.232937 1.160994,-1.934988 0.20597,-0.535522 0.438388,-4.776107 0.386996,-5.546966 -0.07369,-1.105339 -0.03181,-0.450609 -0.386996,-1.160991 -0.043,-0.086 -0.06101,-0.325988 -0.129,-0.258001 -0.043,0.043 0.107646,0.07206 0.129,0.129 0.109916,0.293111 0.188622,0.597736 0.257998,0.902994 0.145775,0.641414 0.314359,1.281242 0.386998,1.934988 0.218895,1.970066 0.1681,3.963898 0.386995,5.933964 0.802979,4.416377 -0.0495,-0.753004 0.258001,2.321986 0.01111,0.111252 0.197482,1.100479 0.257998,1.160994 0.121621,0.121621 0.121621,-0.0074 0,-0.129"
       id="path210" />
    <path
       style="fill:none;stroke:#000000;stroke-width:0.161131"
       d="m 34.442789,94.298422 c 1.217874,0.389239 1.992132,0.249645 3.224979,-0.257998 1.171856,-0.482528 0.478613,-2.10885 -0.128997,-2.837984 -0.06156,-0.07386 -0.190011,-0.06101 -0.258001,-0.128998 -0.0304,-0.03041 0.03846,-0.10977 0,-0.129 -0.278937,-0.13947 -1.119415,0.311187 -1.289992,0.386998 -0.558186,0.248082 -0.60185,0.272161 -1.031994,0.773994 -0.265464,0.309713 -0.460483,0.772406 -0.515995,1.160994 -0.04865,0.34054 0.04546,0.691012 0,1.031994 -0.117462,0.88097 -0.683544,1.325581 0.129,1.934988 0.09729,0.07297 0.171997,0.171998 0.257998,0.257998 0.086,0.129 0.136935,0.290147 0.257997,0.386998 0.109821,0.08786 1.295818,0.617625 1.418993,0.644996 1.148183,0.255151 2.288526,-0.408228 3.35398,-0.644996 0.214034,-0.04756 0.644996,0.09026 0.644996,-0.129 0,-0.043 -0.09054,0.01924 -0.129001,0 -0.05439,-0.02719 -0.086,-0.086 -0.129,-0.128998"
       id="path212" />
    <path
       style="fill:none;stroke:#000000;stroke-width:0.161131"
       d="m 42.698738,91.589438 c 0.214998,0.129 0.532866,0.162737 0.644996,0.386998 0.461468,0.922936 0.49008,3.143729 0.515996,3.998976 0.01953,0.6447 0.03578,1.290984 0,1.934988 -0.0086,0.154797 -0.178231,0.519941 -0.257998,0.386998 -0.325271,-0.542121 -0.386998,-2.267916 -0.386998,-2.837984 0,-2.427118 -0.0042,-3.442825 2.321986,-4.256974 0.374182,-0.130963 0.779809,-0.149087 1.160994,-0.257998 0.22265,-0.06361 0.420349,-0.201837 0.644996,-0.257998 0.643628,-0.160909 0.957075,0.316236 1.289992,0.773994 0.771631,1.060995 1.031994,2.315625 1.031994,3.611978 0,0.300998 0.13461,0.633775 0,0.902996 -0.06934,0.138668 -0.307231,-0.125055 -0.386998,-0.258 -0.231383,-0.385638 -0.129,-1.006957 -0.129,-1.41899 0,-1.290127 0.04342,-2.96187 1.289992,-3.740978 0.196363,-0.122727 0.433395,-0.163952 0.644996,-0.257998 0.324117,-0.144052 0.768786,-0.414882 1.160994,-0.257998 0.549084,0.219634 0.375094,0.363194 0.644996,0.902994 0.245552,0.491107 0.534538,0.737706 0.644996,1.289992 0.04216,0.210823 -0.02141,0.431065 0,0.644996 0.04363,0.436338 0.218297,0.853281 0.257998,1.289992 0.04672,0.513879 0,1.031994 0,1.54799 0,0.332938 0.131842,1.542309 0,1.80599 -0.06167,0.123343 -0.238535,-0.257998 -0.386998,-0.257998"
       id="path214" />
    <path
       style="fill:none;stroke:#000000;stroke-width:0.161131"
       d="m 63.080614,96.056036 c 0.421605,-0.212113 4.034447,-3.532448 -0.870746,-6.466086 -0.736605,-0.613838 -3.034249,0.166783 -3.353979,0.806246 -0.246063,0.492123 -0.913401,1.397721 -0.951368,1.967237 -0.03854,0.578125 0.05399,1.729612 0.145122,2.321987 0.209521,1.361874 1.452431,2.927805 2.966982,2.321984 0.232797,-0.09312 0.420738,-0.274868 0.644996,-0.386996 0.18196,-0.09098 1.370619,-0.346965 1.370619,-0.628871"
       id="path216"
       sodipodi:nodetypes="ccsssssc" />
  </g>
</svg>
