<?xml version="1.0" encoding="UTF-8" standalone="no"?>
<!-- Created with Inkscape (http://www.inkscape.org/) -->

<svg
   version="1.1"
   id="svg2029"
   width="600"
   height="600"
   viewBox="0 0 600 600"
   sodipodi:docname="sector67_400x400.jpg"
   inkscape:export-filename="..\..\..\GitHub\svg_paths_py\assets\s.svg"
   inkscape:export-xdpi="96"
   inkscape:export-ydpi="96"
   xmlns:inkscape="http://www.inkscape.org/namespaces/inkscape"
   xmlns:sodipodi="http://sodipodi.sourceforge.net/DTD/sodipodi-0.dtd"
   xmlns="http://www.w3.org/2000/svg"
   xmlns:svg="http://www.w3.org/2000/svg">
  <defs
     id="defs2033" />
  <sodipodi:namedview
     id="namedview2031"
     pagecolor="#ffffff"
     bordercolor="#000000"
     borderopacity="0.25"
     inkscape:showpageshadow="2"
     inkscape:pageopacity="0.0"
     inkscape:pagecheckerboard="0"
     inkscape:deskcolor="#d1d1d1"
     showgrid="false" />
  <g
     inkscape:groupmode="layer"
     inkscape:label="Image"
     id="g2035">
    <path
       d="m 152.40669,255.01805 c -5.96668,8.17522 -14.40082,13.95003 -25.29832,17.3218 -5.83924,1.81396 -12.64985,2.72372 -20.4346,2.72372 -14.40081,0 -26.340952,-3.56766 -35.808112,-10.70435 C 62.950753,258.51998 56.688176,250.57494 52.084778,240.51999 47.4786,230.46643 44.786405,218.9524 44.006804,205.97646 l 35.029954,-2.52913 c 1.557764,14.21442 5.319956,24.51737 11.286627,30.90738 4.410247,4.824 9.46989,7.1079 15.180365,6.84758 8.04367,-0.25912 14.46654,-4.22255 19.26726,-11.88394 2.4634,-3.76498 3.69781,-9.15483 3.69781,-16.16548 0,-10.12892 -4.60752,-20.19484 -13.81849,-30.19221 -7.26824,-6.88184 -18.164393,-17.20668 -32.693975,-30.97041 -12.196336,-11.81684 -20.82368,-22.40339 -25.884712,-31.7527 -5.448774,-10.51939 -8.17244,-21.945754 -8.17244,-34.280537 0,-22.204675 7.457271,-39.02367 22.380054,-50.451425 9.210966,-6.88045 20.62914,-10.323455 34.251743,-10.323455 13.10192,0 24.32556,2.919647 33.66668,8.758841 7.26551,4.541794 13.13623,10.897546 17.61225,19.070036 4.47741,8.17517 -27.14657,34.643554 -27.14657,34.643554 -1.04126,-9.989178 -3.89374,-17.773926 -8.56291,-23.352857 -3.37723,-4.022506 -8.24234,-6.033784 -14.5967,-6.033784 -6.747611,0 -11.870297,2.98676 -15.373565,8.950651 -2.856604,4.803499 -4.28148,10.77012 -4.28148,17.904084 0,11.16059 4.797988,22.512992 14.400815,34.058542 3.6293,4.4103 9.08081,9.60144 16.34766,15.56811 8.56296,7.13669 14.20761,12.13195 16.93133,14.98582 9.07942,9.0822 16.08461,18.03558 21.01683,26.85608"
       style="fill:none;stroke:#000000;stroke-width:1.80294;stroke-dasharray:none;stroke-opacity:1"
       id="path2873" />
  </g>
</svg>
