<?xml version="1.0" encoding="UTF-8" standalone="no"?>
<!-- Generator: Adobe Illustrator 14.0.0, SVG Export Plug-In . SVG Version: 6.00 Build 43363)  -->

<svg
   version="1.1"
   id="Layer_1"
   x="0px"
   y="0px"
   width="600"
   height="600"
   viewBox="0 0 600 600"
   enable-background="new 0 0 1024 768"
   xml:space="preserve"
   sodipodi:docname="sector67_1_white.svg"
   inkscape:export-filename="..\..\..\GitHub\svg_paths_py\assets\sector.svg"
   inkscape:export-xdpi="96"
   inkscape:export-ydpi="96"
   xmlns:inkscape="http://www.inkscape.org/namespaces/inkscape"
   xmlns:sodipodi="http://sodipodi.sourceforge.net/DTD/sodipodi-0.dtd"
   xmlns="http://www.w3.org/2000/svg"
   xmlns:svg="http://www.w3.org/2000/svg"><defs
   id="defs2227" /><sodipodi:namedview
   id="namedview2225"
   pagecolor="#ffffff"
   bordercolor="#000000"
   borderopacity="0.25"
   inkscape:showpageshadow="2"
   inkscape:pageopacity="0.0"
   inkscape:pagecheckerboard="0"
   inkscape:deskcolor="#d1d1d1"
   showgrid="false" />
<g
   id="g2222"
   transform="matrix(0.45730788,0,0,0.45730788,60.01923,116.65544)">
	<rect
   x="621.78168"
   y="53.789295"
   width="90.886917"
   height="34.193291"
   id="rect2208"
   style="fill:none;stroke:#000000;stroke-width:0.791045;stroke-dasharray:none;stroke-opacity:1" />
	<path
   d="m 283.54006,234.54034 c 0.24811,16.3754 -4.00147,30.36998 -12.74875,41.99166 -5.74749,7.87493 -13.87184,13.43765 -24.3691,16.68555 -5.62476,1.74734 -12.18521,2.62365 -19.68401,2.62365 -13.87184,0 -25.37342,-3.43662 -34.49287,-10.31117 -7.62417,-5.62476 -13.65672,-13.27796 -18.09107,-22.96357 -4.43698,-9.6843 -7.03028,-20.77544 -7.78122,-33.27475 l 33.74326,-2.43625 c 1.50055,13.69236 5.12457,23.61685 10.87206,29.77214 4.24826,4.64682 9.12208,6.84684 14.62278,6.59609 7.74823,-0.24943 13.9352,-4.06746 18.55958,-11.44747 2.37291,-3.62667 3.562,-8.81854 3.562,-15.57168 0,-9.75688 -4.43831,-19.45305 -13.31096,-29.08324 -7.00125,-6.62908 -17.49718,-16.57468 -31.49309,-29.83285 -11.74837,-11.3828 -20.05881,-21.58048 -24.93395,-30.58642 -5.24863,-10.13301 -7.87228,-21.13969 -7.87228,-33.02136 0,-21.389113 7.18337,-37.590313 21.55804,-48.598313 8.87265,-6.62776 19.87141,-9.94428 32.99364,-9.94428 12.62073,0 23.43209,2.81238 32.43011,8.43713 6.99861,4.37496 12.65372,10.49726 16.96533,18.36954 4.31293,7.87492 6.90359,16.93762 7.7799,27.184123 l -33.92934,6.18697 c -1.003,-9.62227 -3.75072,-17.121063 -8.24841,-22.495063 -3.25317,-3.87478 -7.93959,-5.81216 -14.06057,-5.81216 -6.49975,0 -11.43427,2.87704 -14.80886,8.62189 -2.75167,4.627033 -4.12421,10.374523 -4.12421,17.246443 0,10.75065 4.62175,21.68606 13.87185,32.80756 3.496,4.24826 8.74727,9.24877 15.7472,14.99626 8.24841,6.87456 13.68576,11.68635 16.30942,14.43538 8.74595,8.7486 15.49381,17.37313 20.2449,25.86966 2.25016,4.00014 4.05953,7.68619 5.43735,11.06078 3.37591,8.37379 5.12457,15.87126 5.25127,22.49375 z"
   id="path2210"
   style="fill:none;stroke:#000000;stroke-width:0.794214;stroke-dasharray:none;stroke-opacity:1" />
	<path
   d="M 294.48735,293.02882 V 57.950457 h 100.85627 v 35.61729 h -65.42506 v 64.113243 h 47.80382 v 35.6173 h -47.80382 v 64.11324 h 118.21489 v 35.61729 z"
   id="path2212"
   style="fill:none;stroke:#000000;stroke-width:0.794214;stroke-dasharray:none;stroke-opacity:1" />
	<path
   fill="#c12e0c"
   stroke="#ffffff"
   stroke-width="6.59873"
   d="m 473.79986,190.86996 v 46.66224 c 0,5.75013 -1.50847,10.49858 -4.52277,14.24666 -3.14363,4.1242 -7.5397,6.18696 -13.19349,6.18696 -5.65511,0 -10.05251,-2.06276 -13.19218,-6.18696 -2.89024,-3.74808 -4.33536,-8.49653 -4.33536,-14.24666 V 112.78061 c 0,-4.87382 1.25771,-9.31081 3.77051,-13.310963 3.13967,-4.87382 7.78782,-7.31007 13.94443,-7.31007 4.2707,0 7.60174,1.0624 9.98784,3.18587 5.02691,4.49769 7.5397,10.122453 7.5397,16.870313 v 48.66298 c 0,0 36.25605,-0.005 36.37747,0.0132 l 0.55165,-52.29756 c 0,-16.870303 -3.43793,-27.415073 -10.31117,-36.914603 -7.74954,-10.87206 -19.43457,-16.3081 -35.0564,-16.3081 -9.74764,0 -18.68364,0.98585 -26.80799,8.23258 v -78.5407 c 0,-5.74618 1.52958,-10.59096 4.59271,-14.52776 3.06181,-3.9368 7.40509,-5.90586 13.02985,-5.90586 5.62344,0 9.96408,1.96774 13.02721,5.90586 3.06181,3.93548 4.59271,8.78026 4.59271,14.52776 v 5.8108403 h 36.92912 v -5.0612303 c 0,-15.49513 -4.93716,-28.61736 -14.80886,-39.36669 -10.24915,-11.24819 -23.12326,-16.87163 -38.6184,-16.87163 -7.75086,0 -14.87485,1.49923 -21.37064,4.49902 -10.24914,4.49901 -18.15442,11.37356 -23.71451,20.62102 -5.56272,9.2501 -8.34079,19.62198 -8.34079,31.11828 V 238.09442 c 0,15.4991 4.93453,28.62265 14.80887,39.36801 10.12377,11.12546 22.99524,16.68555 38.61839,16.68555 14.62278,0 26.96241,-5.06255 37.02547,-15.18499 10.05778,-10.12245 15.46609,-22.68379 16.21439,-37.68006 l 0.15573,-0.16497 -0.18872,-50.55286 c -0.1465,0.16893 -36.51868,0.32862 -36.70477,0.30487 z"
   id="path2214"
   style="fill:none;stroke:#000000;stroke-width:0.550065;stroke-dasharray:none;stroke-opacity:1" />
	<path
   fill="#c12e0c"
   stroke="#ffffff"
   stroke-width="6.59873"
   d="m 624.42111,51.161687 v 35.61861 l -62.8806,341.994923 h -34.7753 l 62.8806,-343.314673 h -71.70442 v -34.29886 z"
   id="path2216"
   style="fill:none;stroke:#000000;stroke-width:1.33171;stroke-dasharray:none;stroke-opacity:1" />
	<path
   d="m 714.07671,53.818327 c 15.62183,0 28.89847,5.5007 39.83784,16.49682 10.93409,10.99744 16.40312,24.24769 16.40312,39.744143 v 128.22385 c 0,15.62314 -5.5007,28.89979 -16.49682,39.83784 -10.99876,10.93673 -24.24769,16.4018 -39.74282,16.4018 -15.62315,0 -28.86944,-5.49806 -39.7415,-16.49682 -10.87207,-10.99612 -16.3081,-24.24505 -16.3081,-39.7415 V 110.06061 c 0,-15.623153 5.49674,-28.899793 16.49682,-39.837843 10.99216,-10.93541 24.18038,-16.40444 39.55146,-16.40444 z m 19.30919,55.490033 c 0,-5.62476 -1.96774,-10.406203 -5.90586,-14.341683 -3.93548,-3.93548 -8.7156,-5.90586 -14.34035,-5.90586 -5.62344,0 -10.43655,1.96906 -14.43538,5.90586 -4.00015,3.93548 -5.99824,8.716923 -5.99824,14.341683 v 128.59997 c 0,5.62211 1.99809,10.40355 5.99824,14.33903 3.99751,3.93549 8.81194,5.90587 14.43538,5.90587 5.62475,0 10.40487,-1.96906 14.34035,-5.90587 3.9368,-3.93548 5.90586,-8.71692 5.90586,-14.33903 z"
   id="path2218"
   style="fill:none;stroke:#000000;stroke-width:0.791045;stroke-dasharray:none;stroke-opacity:1" />
	<path
   d="m 837.68672,56.816797 c 19.74471,0 34.2408,5.43735 43.4909,16.30941 8.12303,9.49821 12.18521,22.74714 12.18521,39.741503 v 34.1207 c 0,16.62352 -6.31235,30.68145 -18.93439,42.17775 l 26.24182,102.54292 H 862.3554 l -21.48149,-88.48235 c -1.00301,0 -2.06277,0 -3.18719,0 H 817.2531 v 88.48235 H 781.82321 V 56.816797 Z m 21.18324,56.615763 c 0,-13.619773 -6.74786,-20.434943 -20.24622,-20.434943 H 817.2531 v 75.174033 h 21.37064 c 5.62476,0 10.40487,-1.99809 14.34167,-5.99824 3.93549,-3.99751 5.90455,-8.81062 5.90455,-14.43538 z"
   id="path2220"
   style="fill:none;stroke:#000000;stroke-width:0.791045;stroke-dasharray:none;stroke-opacity:1" />
</g>
</svg>
