<?xml version="1.0" encoding="utf-8"?>
<!-- Generator: Adobe Illustrator 14.0.0, SVG Export Plug-In . SVG Version: 6.00 Build 43363)  -->
<!DOCTYPE svg PUBLIC "-//W3C//DTD SVG 1.1//EN" "http://www.w3.org/Graphics/SVG/1.1/DTD/svg11.dtd">
<svg version="1.1" id="Layer_1" xmlns="http://www.w3.org/2000/svg" xmlns:xlink="http://www.w3.org/1999/xlink" x="0px" y="0px"
	 width="1024px" height="768px" viewBox="0 0 1024 768" enable-background="new 0 0 1024 768" xml:space="preserve">
<g>
	<rect x="591.645" y="305.914" width="68.867" height="25.909"/>
	<path d="M335.352,442.873c0.188,12.408-3.032,23.012-9.66,31.818c-4.355,5.967-10.511,10.182-18.465,12.643
		c-4.262,1.324-9.233,1.988-14.915,1.988c-10.511,0-19.226-2.604-26.136-7.813c-5.777-4.262-10.348-10.061-13.708-17.4
		c-3.362-7.338-5.327-15.742-5.896-25.213l25.568-1.846c1.137,10.375,3.883,17.895,8.238,22.559
		c3.219,3.521,6.912,5.188,11.08,4.998c5.871-0.189,10.559-3.082,14.063-8.674c1.798-2.748,2.699-6.682,2.699-11.799
		c0-7.393-3.363-14.74-10.086-22.037c-5.305-5.023-13.258-12.559-23.863-22.605c-8.902-8.625-15.199-16.352-18.893-23.176
		c-3.977-7.678-5.965-16.018-5.965-25.021c0-16.207,5.443-28.483,16.335-36.824c6.723-5.022,15.057-7.535,25-7.535
		c9.563,0,17.755,2.131,24.573,6.393c5.303,3.315,9.588,7.954,12.855,13.919c3.268,5.967,5.231,12.834,5.895,20.598l-25.709,4.688
		c-0.76-7.291-2.842-12.973-6.25-17.045c-2.465-2.936-6.016-4.404-10.654-4.404c-4.925,0-8.664,2.18-11.221,6.533
		c-2.085,3.506-3.125,7.861-3.125,13.068c0,8.146,3.502,16.432,10.511,24.859c2.649,3.219,6.628,7.008,11.932,11.363
		c6.25,5.209,10.37,8.855,12.358,10.938c6.627,6.629,11.74,13.164,15.34,19.602c1.705,3.031,3.076,5.824,4.12,8.381
		C333.931,432.174,335.256,437.855,335.352,442.873z"/>
	<path d="M343.647,487.191V309.067h76.421v26.988h-49.574v48.58h36.222v26.988h-36.222v48.58h89.574v26.988H343.647z"/>
	<path fill="#C12E0C" stroke="#FFFFFF" stroke-width="5" d="M479.516,409.783v35.357c0,4.357-1.143,7.955-3.427,10.795
		c-2.382,3.125-5.713,4.688-9.997,4.688c-4.285,0-7.617-1.563-9.996-4.688c-2.19-2.84-3.285-6.438-3.285-10.795v-94.527
		c0-3.693,0.953-7.055,2.857-10.086c2.379-3.693,5.901-5.539,10.566-5.539c3.236,0,5.76,0.805,7.568,2.414
		c3.809,3.408,5.713,7.67,5.713,12.783v36.873c0,0,27.472-0.004,27.564,0.01l0.418-39.627c0-12.783-2.605-20.773-7.813-27.971
		c-5.872-8.238-14.726-12.357-26.563-12.357c-7.386,0-14.157,0.747-20.313,6.238v-59.512c0-4.354,1.159-8.025,3.48-11.008
		c2.32-2.983,5.611-4.475,9.873-4.475c4.261,0,7.55,1.491,9.871,4.475c2.32,2.982,3.48,6.653,3.48,11.008v4.403h27.982v-3.835
		c0-11.741-3.741-21.684-11.221-29.829c-7.766-8.523-17.521-12.784-29.262-12.784c-5.873,0-11.271,1.136-16.193,3.409
		c-7.766,3.409-13.756,8.618-17.969,15.625c-4.215,7.009-6.32,14.868-6.32,23.579v191.159c0,11.744,3.739,21.688,11.221,29.83
		c7.671,8.43,17.424,12.643,29.262,12.643c11.08,0,20.43-3.836,28.055-11.506c7.621-7.67,11.719-17.188,12.286-28.551l0.118-0.125
		l-0.143-38.305C507.217,409.68,479.657,409.801,479.516,409.783z"/>
	<path fill="#C12E0C" stroke="#FFFFFF" stroke-width="5" d="M593.645,303.923v26.989l-47.646,259.137h-26.35l47.646-260.137h-54.332
		v-25.989H593.645z"/>
	<path d="M661.579,305.936c11.837,0,21.897,4.168,30.186,12.5c8.285,8.333,12.429,18.373,12.429,30.115v97.158
		c0,11.838-4.168,21.898-12.5,30.186c-8.334,8.287-18.373,12.428-30.114,12.428c-11.838,0-21.875-4.166-30.113-12.5
		c-8.238-8.332-12.357-18.371-12.357-30.113v-97.158c0-11.838,4.165-21.898,12.5-30.186
		C639.939,310.08,649.932,305.936,661.579,305.936z M676.21,347.982c0-4.262-1.491-7.885-4.475-10.867
		c-2.982-2.982-6.604-4.475-10.866-4.475c-4.261,0-7.908,1.492-10.938,4.475c-3.031,2.982-4.545,6.605-4.545,10.867v97.443
		c0,4.26,1.514,7.883,4.545,10.865c3.029,2.982,6.677,4.475,10.938,4.475c4.262,0,7.884-1.492,10.866-4.475
		c2.983-2.982,4.475-6.605,4.475-10.865V347.982z"/>
	<path d="M755.241,308.208c14.961,0,25.945,4.12,32.954,12.358c6.155,7.197,9.233,17.236,9.233,30.113v25.854
		c0,12.596-4.783,23.248-14.347,31.959l19.884,77.699h-29.032l-16.277-67.045c-0.76,0-1.563,0-2.415,0h-15.483v67.045h-26.846
		V308.208H755.241z M771.292,351.107c0-10.32-5.113-15.484-15.341-15.484h-16.193v56.961h16.193c4.262,0,7.884-1.514,10.867-4.545
		c2.982-3.029,4.474-6.676,4.474-10.938V351.107z"/>
</g>
</svg>
