<?xml version="1.0" encoding="UTF-8" standalone="no"?>
<!-- Created with Inkscape (http://www.inkscape.org/) -->

<svg
   width="600"
   height="600"
   viewBox="0 0 158.75 158.75"
   version="1.1"
   id="svg3598"
   inkscape:export-filename="text.svg"
   inkscape:export-xdpi="96"
   inkscape:export-ydpi="96"
   xmlns:inkscape="http://www.inkscape.org/namespaces/inkscape"
   xmlns:sodipodi="http://sodipodi.sourceforge.net/DTD/sodipodi-0.dtd"
   xmlns="http://www.w3.org/2000/svg"
   xmlns:svg="http://www.w3.org/2000/svg">
  <sodipodi:namedview
     id="namedview3600"
     pagecolor="#ffffff"
     bordercolor="#000000"
     borderopacity="0.25"
     inkscape:showpageshadow="2"
     inkscape:pageopacity="0.0"
     inkscape:pagecheckerboard="0"
     inkscape:deskcolor="#d1d1d1"
     inkscape:document-units="mm"
     showgrid="false" />
  <defs
     id="defs3595" />
  <g
     inkscape:label="Layer 1"
     inkscape:groupmode="layer"
     id="layer1">
    <path
       style="fill:none;stroke:#000000;stroke-width:0.148559"
       d="m 9.8063073,12.292293 c 0,0.356804 0.023729,0.714398 0,1.070411 -0.016035,0.240615 -0.1079824,0.472704 -0.1189391,0.713606 0,5.666954 0.104289,-0.06203 -0.1189391,2.616557 -0.061478,0.737669 0,1.519966 0,2.259754 0,1.546147 0,3.092295 0,4.638441"
       id="path3602" />
    <path
       style="fill:none;stroke:#000000;stroke-width:0.148559"
       d="m 5.5246691,25.137209 c 1.8679578,0.04871 3.7276042,-0.02091 5.5899169,-0.118939 0.08242,-0.0043 1.305016,-0.12057 1.546147,0 0.18709,0.09355 0.134836,0.118939 0.356804,0.118939"
       id="path3604" />
    <path
       style="fill:none;stroke:#000000;stroke-width:0.148559"
       d="m 6.5950781,12.649097 c 1.2836757,0.01859 2.5260067,-0.364443 3.8059019,-0.475738 0.631931,-0.05495 1.270501,0.04866 1.90295,0 0.201554,-0.01551 0.395273,-0.0857 0.594672,-0.118939 0.08921,-0.01493 0.297336,0.02973 0.356804,0 0.317159,-0.158579 -0.356804,-0.118939 0.118939,-0.118939"
       id="path3606" />
    <path
       style="fill:none;stroke:#000000;stroke-width:0.148559"
       d="m 28.003273,19.309424 c -0.317159,-0.277513 -0.592563,-0.61167 -0.951476,-0.832541 -0.172164,-0.105951 -0.392971,-0.105489 -0.594672,-0.118939 -1.340762,-0.08939 -1.491611,-0.19101 -2.378688,0.832541 -0.259647,0.299592 -0.53631,0.596881 -0.713607,0.951476 -0.53883,1.077662 -0.229541,1.037097 -0.475736,2.021885 -0.05178,0.207119 -0.196001,0.385323 -0.237871,0.594671 -0.12374,0.618672 -0.125479,1.777475 0.356803,2.259755 1.059676,1.059675 3.252935,-0.279573 4.043771,-1.070411 0.627901,-0.627901 0.977869,-1.889594 1.189343,-2.735491 0.117801,-0.471181 0.263819,-0.442585 0.118939,-1.070409 -0.06789,-0.294195 -0.283576,-1.125452 -0.356803,-0.832541 -0.144546,0.578197 0.09187,1.188638 0.118939,1.784015 0.03481,0.765881 -0.125987,1.622756 0,2.378688 0.31309,1.878538 0.237869,-0.428197 0.237869,1.427214 0,0.960661 -0.04807,0.235355 0.118924,1.070409 0.0077,0.03887 -0.03964,0.118939 0,0.118939 0.03964,0 0,-0.0793 0,-0.118939 0,-0.158579 0,-0.317158 0,-0.475738"
       id="path3608" />
    <path
       style="fill:none;stroke:#000000;stroke-width:0.148559"
       d="m 29.787289,19.547292 c 0.0793,0.15858 0.205194,0.301478 0.237867,0.475738 0.08798,0.46921 0.07571,0.951788 0.118939,1.427213 0.07571,0.832874 0.192729,1.662533 0.237869,2.497623 0.03424,0.633392 0,1.268633 0,1.90295 0,0.477388 0.218629,1.089649 -0.118939,1.427214 -0.101581,0.10158 -0.118939,-0.621946 -0.118939,-1.30828 0,-0.673961 -0.04204,-1.349236 0,-2.021884 0.07539,-1.206172 0.574952,-2.319529 0.951476,-3.449098 0.102304,-0.306921 0.631162,-1.452892 1.070407,-1.189344 1.245486,0.74729 1.37397,3.855694 1.546148,5.233114 0.0496,0.396737 -0.03418,1.070409 0,1.070409 0.03964,0 0,-0.07928 0,-0.118939 0,-0.356803 0,-0.713605 0,-1.070409 0,-0.713607 0,-1.427214 0,-2.14082 0,-1.402495 0.532234,-2.286021 1.427212,-3.330163 0.101996,-0.119 0.559096,-0.731394 0.832543,-0.594672 0.227049,0.113522 0.334924,0.383457 0.475736,0.594672 0.547431,0.821145 0.86174,1.748403 0.951476,2.735492 0.07363,0.809886 -0.08588,0.687177 0,1.546146 0.01246,0.124741 0.103381,0.232403 0.118939,0.356804 0.02459,0.196693 -0.02459,0.397979 0,0.594672 0.06943,0.555512 0.223747,1.132864 0.356801,1.665081 0.01922,0.07691 -0.03546,0.166951 0,0.237869 0.03964,0.07928 0.118939,-0.149224 0.118939,-0.237869"
       id="path3610" />
    <path
       style="fill:none;stroke:#000000;stroke-width:0.148559"
       d="m 54.525644,20.617702 c -0.237869,0.753251 -0.500621,1.499093 -0.713605,2.259754 -0.116677,0.416691 -0.06899,2.804486 -0.237867,2.97336 -0.140176,0.14016 -0.30873,-0.283432 -0.356804,-0.475736 -0.08205,-0.328219 -0.217733,-1.145261 -0.237872,-1.427214 -0.05751,-0.805036 -0.20418,-2.117673 0.237872,-2.854426 0.115385,-0.192305 0.317158,-0.317159 0.475737,-0.475738 0.0793,-0.0793 0.12574,-0.237869 0.237867,-0.237869 0.213493,0 0.381918,0.255598 0.594672,0.237869 0.300883,-0.02508 0.533651,-0.399501 0.832543,-0.356802 0.316278,0.04518 1.12011,0.813006 1.308276,1.189343 0.07311,0.146208 0.05454,0.325494 0.11894,0.475738 0.08553,0.199582 0.424704,0.628406 0.475736,0.83254 0.02885,0.115384 -0.01956,0.239488 0,0.356804 0.11186,0.671181 0.356803,1.20154 0.356803,1.902951 0,0.118462 0.07824,1.308278 0.118939,1.308278 0.03964,0 0,-0.0793 0,-0.118939 0,-0.198225 0,-0.396448 0,-0.594673"
       id="path3612" />
    <path
       style="fill:none;stroke:#000000;stroke-width:0.148559"
       d="m 61.780643,24.661471 c -0.221446,0.369082 -0.274457,0.84271 -0.83254,0.594674 -0.51211,-0.227606 -1.054772,-1.046953 -1.308279,-1.427214 -0.618487,-0.927728 -1.003183,-2.037402 -0.475738,-3.092294 0.125371,-0.250736 0.422567,-0.373393 0.594672,-0.594671 0.391614,-0.503506 0.737204,-1.094008 1.189345,-1.546148 0.179991,-0.179993 0.92913,0.09659 1.07041,0.237868 0.101073,0.101073 0.161128,0.236209 0.237869,0.356804 0.200795,0.315535 0.463349,0.60128 0.594671,0.951476 0.193696,0.516519 0.08379,1.375723 0.118939,1.90295 0.05608,0.84107 0.196757,1.351592 -0.118939,2.140819 -0.0548,0.136974 -0.06689,0.390254 -0.237867,0.475736 -0.372482,0.186242 -0.220797,-0.04706 -0.832543,0 -1.190402,0.09158 -1.308278,0.904084 -1.308278,-0.237867"
       id="path3614" />
    <path
       style="fill:none;stroke:#000000;stroke-width:0.148559"
       d="m 69.154577,14.433114 c -1.161105,3.446882 -1.463937,7.421104 -1.784015,10.941966 -0.08267,0.909429 0.380228,2.049996 0.951476,2.73549 0.02538,0.03045 0.07928,0 0.118939,0 0.07928,0 0.181803,0.05606 0.23787,0 0.239763,-0.239765 0.537297,-0.964029 0.594671,-1.308278 0.160469,-0.962811 -0.135559,-0.968096 -0.713607,-1.546147 C 68.340966,25.0372 68.163463,24.780407 67.96524,24.542538"
       id="path3616" />
    <path
       style="fill:none;stroke:#000000;stroke-width:0.148559"
       d="m 65.46761,20.736637 c 1.575004,-0.196876 0.476729,-0.02665 2.497624,-0.475737 0.55411,-0.12314 1.109629,-0.239866 1.66508,-0.356805 0.59655,-0.125587 0.917724,-0.170363 1.189346,-0.713605"
       id="path3618" />
    <path
       style="fill:none;stroke:#000000;stroke-width:0.148559"
       d="m 83.188838,19.309424 c -0.27189,-0.05438 -0.78917,-0.246085 -1.07041,0 -1.047474,0.916539 -1.632604,4.314118 -0.594673,5.352047 0.218473,0.218473 0.913646,-0.107228 1.070412,-0.237867 0.129219,-0.107675 0.273351,-0.210767 0.356801,-0.356804 0.186601,-0.326549 0.201173,-0.728018 0.356803,-1.07041 1.325242,-2.650484 -0.258005,0.645013 0.475739,-1.189343 0.04164,-0.104105 0.187722,-0.137575 0.237868,-0.237869 0.182843,-0.365686 0.237869,-0.67287 0.237869,-1.07041 0,-0.643943 0.280789,-1.967334 0,-1.546147 -0.310136,0.465204 -0.194735,1.147477 -0.237869,1.665081 -0.136744,1.640958 -0.286005,3.114959 0.475738,4.638443 0.114815,0.229632 0,-0.250581 0,-0.475738"
       id="path3620" />
    <path
       style="fill:none;stroke:#000000;stroke-width:0.148559"
       d="m 95.201211,18.833686 c 0.277516,0.594673 0.643975,1.155455 0.832546,1.784016 0.08325,0.277423 0.710761,4.174071 0.594666,4.638443 -0.06085,0.243249 -0.193015,-0.466915 -0.23787,-0.713607 -0.08768,-0.48247 -0.295972,-0.94062 -0.356796,-1.427213 -0.04969,-0.397598 -0.115554,-3.22479 0,-3.686966 0.06371,-0.254709 0.23468,-0.772279 0.475732,-0.832541 0.303395,-0.07585 0.9034,-0.0715 1.189351,0 0.237759,0.05945 0.563448,0.372412 0.832536,0.237868 0.0355,-0.01773 -0.03301,-0.09695 0,-0.118939 0.10432,-0.06954 0.244676,-0.06288 0.356807,-0.118939 0.22308,-0.111537 0.472318,-0.475738 0.713601,-0.475738"
       id="path3622" />
    <path
       style="fill:none;stroke:#000000;stroke-width:0.148559"
       d="m 103.40769,19.309424 -4.519507,4.281638 c 1.170097,0.881167 1.915107,2.232722 3.211227,2.973361 0.37015,0.211513 1.72676,0.438096 2.14082,0.475738 1.2498,0.113614 1.14474,-0.01185 2.02188,-0.713607 0.1567,-0.125356 0.92146,-0.534626 1.07041,-0.832541 0.0532,-0.106382 -0.0289,-0.24142 0,-0.356804 0.0135,-0.05438 0.10121,-0.06574 0.11894,-0.118939 0.25283,-0.758476 0.55909,-2.283163 0.35681,-3.092295 -0.0693,-0.277347 -0.36312,-0.450839 -0.47574,-0.713607 -0.22535,-0.525811 -0.3246,-0.940953 -0.71361,-1.427212 -0.10507,-0.131342 -0.28158,-0.206362 -0.3568,-0.356803 -0.0177,-0.03546 0.0376,-0.106398 0,-0.118939 -0.0962,-0.03209 -1.50506,-0.251565 -1.54615,-0.237869 -0.48172,0.160573 0.0282,0.155447 -0.71361,0.237869 -0.19701,0.02188 -0.41469,-0.08307 -0.59466,0 -0.41042,0.189422 -0.86827,0.42824 -1.07041,0.832541 -0.0177,0.03546 0.028,0.0909 0,0.118939 -0.0561,0.05606 -0.18181,-0.05606 -0.23787,0 -0.14486,0.144854 -0.0557,0.265724 -0.23787,0.356802 -0.32502,0.162509 -0.40593,0.310262 -0.83255,0.594672 -0.033,0.02199 -0.0909,-0.02804 -0.11894,0 -0.10395,0.103951 -0.06,0.476943 -0.11892,0.594673 -0.0177,0.03546 -0.10121,-0.03546 -0.11894,0 -0.0887,0.177296 0.0627,0.406619 0,0.594672 -0.0125,0.03761 -0.0909,-0.02804 -0.11894,0 -0.0965,0.0965 0.60367,1.298801 0.7136,1.546147 0.10183,0.229125 0.13604,0.484481 0.23787,0.713607 0.18095,0.407132 0.23974,0.243482 0.35681,0.594672 0.0251,0.07522 -0.0561,0.181802 0,0.237867 0.0627,0.06268 0.17518,0.05625 0.23787,0.118939 0.12709,0.127096 -0.16908,0.237871 0.11894,0.237871"
       id="path3624" />
    <path
       style="fill:none;stroke:#000000;stroke-width:0.148559"
       d="m 112.56564,13.957376 c 0.48246,1.929854 0.49784,1.864046 0.83254,4.87631 0.21087,1.897868 0.28254,3.809103 0.47574,5.708852 0.0448,0.440967 0.19584,0.867032 0.23787,1.308278 0.0416,0.43592 0.0769,1.699941 -0.11896,1.308279 -0.64241,-1.284819 -0.28652,-2.940916 -0.11895,-4.281639 0.0197,-0.157354 -0.0502,-0.325296 0,-0.475738 0.056,-0.168199 0.19486,-0.303733 0.23786,-0.475737 0.0192,-0.07691 -0.0294,-0.164251 0,-0.237869 0.44064,-1.101618 1.15195,-1.256342 2.14081,-0.832541 0.0816,0.03492 0.18468,0.04801 0.23788,0.118939 0.18115,0.241541 0.19679,0.576508 0.3568,0.832541 0.10511,0.168094 0.28565,0.290726 0.3568,0.475737 0.0636,0.165051 0.41334,1.789862 0.23786,2.14082 -0.0502,0.100288 -0.17267,0.146624 -0.23786,0.237868 -0.13896,0.194573 -0.32698,0.671931 -0.59466,0.832541 -0.13927,0.08359 -2.06918,0.42845 -2.14083,0.356804 -0.11218,-0.112138 0,-0.31716 0,-0.475737"
       id="path3626" />
    <path
       style="fill:none;stroke:#000000;stroke-width:0.148559"
       d="m 121.60465,25.018276 c -0.15858,0.0793 -0.30266,0.276329 -0.47574,0.237869 -0.47389,-0.105305 -1.22355,-1.342808 -1.30828,-1.546148 -0.12757,-0.306073 -0.70637,-2.377612 -0.59466,-2.97336 0.0599,-0.319713 1.02468,-1.58551 1.30826,-1.784016 0.15851,-0.110952 1.01512,-0.384458 1.30829,-0.237869 0.43314,0.216573 0.52794,0.907878 0.59468,1.308278 0.35043,2.102633 -0.0717,4.096512 -1.30829,5.827786 -0.1488,0.208292 -0.60626,-0.162486 -0.47574,-0.475736 0.157,-0.376772 0.39645,-0.713609 0.59468,-1.070411"
       id="path3628" />
    <path
       style="fill:none;stroke:#000000;stroke-width:0.148559"
       d="m 127.6703,14.789916 c 0.19822,0.317159 0.50692,0.587909 0.59468,0.951476 0.47374,1.962658 0.27163,4.925068 0.47574,7.017129 0.0893,0.915209 0.20563,1.828449 0.35681,2.735492 0.0743,0.445871 0.35678,0.856258 0.35678,1.308279 0,0.08865 -0.0759,-0.160376 -0.11895,-0.237869 -0.56432,-1.015779 -0.37598,-0.692875 -1.07041,-1.665081"
       id="path3630" />
    <path
       style="fill:none;stroke:#000000;stroke-width:0.148559"
       d="m 125.76735,20.736637 c 0.89579,-0.177943 1.83838,0.163113 2.7355,0 0.6678,-0.121417 1.40353,-0.523372 2.02188,-0.832542"
       id="path3632" />
    <path
       style="fill:none;stroke:#000000;stroke-width:0.148559"
       d="m 39.284785,33.721142 c 0.889213,0.990473 1.569861,2.149215 2.35478,3.195774 0.774403,1.032539 -0.329154,-0.321911 0.168199,0.672795 0.05015,0.100288 0.257108,-0.0793 0.336398,0 0.08865,0.08865 0.07954,0.247748 0.168198,0.336396"
       id="path3693" />
    <path
       style="fill:none;stroke:#000000;stroke-width:0.148559"
       d="m 42.31236,34.898532 c -0.83124,0.724778 -2.025147,1.695513 -2.52298,2.691179"
       id="path3695" />
    <path
       style="fill:none;stroke:#000000;stroke-width:0.148559"
       d="m 52.740678,36.748719 c -0.117154,-1.047147 0.779707,-1.513789 1.681985,-1.513789 0.112138,0 0.286251,-0.100288 0.336398,0 0.05015,0.100288 -0.05015,0.236103 0,0.336398 0.07093,0.141838 0.277501,0.189158 0.336397,0.336395 0.101996,0.254979 0.03442,1.14297 -0.168198,1.345591 -0.119047,0.119047 -2.155114,0.231135 -2.186582,0.168198 -0.100304,-0.20059 0,-0.448529 0,-0.672793 z"
       id="path3697" />
    <path
       style="fill:none;stroke:#000000;stroke-width:0.148559"
       d="m 34.407024,42.80387 c 0.78712,0.846671 1.750613,1.684233 2.35478,2.691177 0.155339,0.258901 0.160905,0.595306 0.336399,0.840993 0.117493,0.164495 0.375182,0.181103 0.504595,0.336398 0.160516,0.19262 0.197312,0.464168 0.336398,0.672793 0.604924,0.907389 0.05235,-0.115846 0.672793,0.504598 0.306693,0.306691 0.01447,0.31139 0.336398,0.504597 0.215005,0.129004 0.480175,0.175878 0.672795,0.336395 0.155296,0.129419 0.178544,0.378316 0.336398,0.504598 0.138436,0.110753 0.346016,0.0889 0.504593,0.168199 0.802255,0.401125 1.602101,0.825014 2.522981,1.009191 0.591711,0.118339 1.252354,-0.08541 1.850184,0 1.320155,0.188592 2.618273,0.248568 3.868572,-0.168199 0.252298,-0.0841 0.588694,0.0841 0.840992,0 0.07522,-0.02508 0.09298,-0.14313 0.1682,-0.168198 0.633987,-0.211331 2.097247,0.02231 2.859376,-0.1682 0.427073,-0.106766 0.722481,-0.559066 1.177391,-0.672793 0.108782,-0.02719 0.236102,0.05015 0.336395,0 0.05015,-0.02508 -0.04666,-0.137097 0,-0.1682 0.147516,-0.09835 0.352567,-0.07697 0.504598,-0.168199 0.135974,-0.08159 0.200416,-0.254809 0.336398,-0.336397 0.152024,-0.09122 0.357074,-0.06985 0.504594,-0.168197 0.04769,-0.03179 0.194189,-0.409791 0.336398,-0.504597 0.208626,-0.139083 0.495499,-0.159101 0.672795,-0.336398 0.08865,-0.08865 0.09298,-0.236103 0.168198,-0.336395 0.704399,-0.939199 1.777967,-1.838073 2.69118,-2.522982 0.100288,-0.07522 0.05606,-0.280331 0.168197,-0.336398 0.100288,-0.05015 0.246691,0.06728 0.336398,0 0.161719,-0.121293 0.210115,-0.346744 0.336398,-0.504595 0.665793,-0.832239 -0.03324,0.201432 0.840993,-0.672796 0.03964,-0.03964 0,-0.112137 0,-0.168195 0.05606,-0.05606 0.102227,-0.124217 0.168198,-0.1682 0.10432,-0.06954 0.247748,-0.07954 0.336396,-0.1682 0.179743,-0.179741 -0.239104,-0.336398 0.168199,-0.336398"
       id="path3699" />
  </g>
</svg>
